<svg width="71" height="71" viewBox="0 0 71 71" fill="none" xmlns="http://www.w3.org/2000/svg">
<circle cx="35.5" cy="35.5" r="35.5" fill="#FFC196"/>
<ellipse cx="24.5" cy="32" rx="3" ry="5" fill="white"/>
<ellipse cx="46.5" cy="32" rx="3" ry="5" fill="white"/>
<path d="M44.875 51C46.3247 51 47.5098 49.7439 46.7025 48.5397C46.6534 48.4664 46.602 48.3936 46.5485 48.3212C45.9203 47.4719 44.9996 46.7003 43.8388 46.0503C42.6781 45.4002 41.3001 44.8846 39.7835 44.5328C38.267 44.1811 36.6415 44 35 44C33.3585 44 31.733 44.1811 30.2165 44.5328C28.6999 44.8846 27.3219 45.4002 26.1612 46.0503C25.0004 46.7003 24.0797 47.4719 23.4515 48.3212C23.398 48.3936 23.3466 48.4664 23.2975 48.5397C22.4902 49.7439 23.6753 51 25.125 51H26.0725C26.999 51 27.7509 50.1911 28.3019 49.4463C28.6662 48.9537 29.2003 48.5062 29.8735 48.1291C30.5467 47.7521 31.3459 47.4531 32.2255 47.249C33.1052 47.045 34.0479 46.94 35 46.94C35.9521 46.94 36.8948 47.045 37.7745 47.249C38.6541 47.4531 39.4533 47.7521 40.1265 48.1291C40.7997 48.5062 41.3338 48.9537 41.6981 49.4463C42.2491 50.1911 43.001 51 43.9275 51H44.875Z" fill="white"/>
</svg>
