<svg width="42" height="59" viewBox="0 0 42 59" fill="none" xmlns="http://www.w3.org/2000/svg">
<path d="M42 20.9706C42 29.4642 30.7059 47.5663 24.6829 56.616C22.9089 59.2816 19.0911 59.2816 17.3171 56.616C11.2941 47.5663 0 29.4642 0 20.9706C0 9.38885 9.40202 0 21 0C32.598 0 42 9.38885 42 20.9706Z" fill="#B0B0C1"/>
<path d="M10.3518 11.4348C13.0748 8.71184 17.4896 8.71184 20.2126 11.4348C20.6611 11.8833 21.0333 12.3791 21.334 12.9043C21.5835 12.5319 21.8724 12.1781 22.2014 11.8492C24.9243 9.12616 29.3392 9.12616 32.0622 11.8492C34.7852 14.5721 34.7852 18.987 32.0622 21.71C31.7891 21.983 31.4979 22.2271 31.1942 22.4454C31.3203 22.5547 31.4451 22.6673 31.565 22.7872C34.288 25.5102 34.288 29.925 31.565 32.648C28.842 35.371 24.4272 35.371 21.7042 32.648C21.589 32.5329 21.4795 32.414 21.3741 32.2931C21.1742 32.5612 20.9533 32.8189 20.7098 33.0624C17.9868 35.7853 13.572 35.7853 10.849 33.0624C8.12598 30.3394 8.12598 25.9245 10.849 23.2015C11.1469 22.9036 11.4659 22.6395 11.7998 22.4067C11.2823 22.108 10.7944 21.7383 10.3518 21.2957C7.6288 18.5727 7.6288 14.1578 10.3518 11.4348Z" fill="white"/>
</svg>
