<svg width="42" height="59" viewBox="0 0 42 59" fill="none" xmlns="http://www.w3.org/2000/svg">
<path d="M42 20.9706C42 29.4642 30.7059 47.5663 24.6829 56.616C22.9089 59.2816 19.0911 59.2816 17.3171 56.616C11.2941 47.5663 0 29.4642 0 20.9706C0 9.38885 9.40202 0 21 0C32.598 0 42 9.38885 42 20.9706Z" fill="#FF6C6C"/>
<path d="M31.5652 11.3523C34.2882 14.0753 34.2882 18.4901 31.5652 21.2131C31.1167 21.6616 30.6209 22.0338 30.0957 22.3345C30.4681 22.584 30.8219 22.8729 31.1508 23.2018C33.8738 25.9248 33.8738 30.3397 31.1508 33.0627C28.4279 35.7857 24.013 35.7857 21.29 33.0627C21.017 32.7896 20.7729 32.4983 20.5546 32.1947C20.4453 32.3208 20.3327 32.4456 20.2128 32.5655C17.4898 35.2885 13.075 35.2885 10.352 32.5655C7.62897 29.8425 7.62898 25.4276 10.352 22.7047C10.4671 22.5895 10.586 22.48 10.7069 22.3746C10.4388 22.1746 10.1811 21.9538 9.93765 21.7103C7.21465 18.9873 7.21466 14.5725 9.93765 11.8495C12.6606 9.12647 17.0755 9.12647 19.7985 11.8495C20.0964 12.1474 20.3605 12.4663 20.5933 12.8003C20.892 12.2828 21.2617 11.7949 21.7043 11.3523C24.4273 8.62929 28.8422 8.62929 31.5652 11.3523Z" fill="white"/>
</svg>
