<svg width="42" height="59" viewBox="0 0 42 59" fill="none" xmlns="http://www.w3.org/2000/svg">
<path d="M42 20.9706C42 29.4642 30.7059 47.5663 24.6829 56.616C22.9089 59.2816 19.0911 59.2816 17.3171 56.616C11.2941 47.5663 0 29.4642 0 20.9706C0 9.38885 9.40202 0 21 0C32.598 0 42 9.38885 42 20.9706Z" fill="#4A3AFF"/>
<rect x="16" y="19.5" width="10" height="15" fill="#4A3AFF"/>
<path d="M21.884 9.86598L33.134 21.116C33.9215 21.9035 33.364 23.2497 32.2502 23.2497H31.0002V30.7497C31.0002 31.7443 30.6051 32.6981 29.9019 33.4014C29.1986 34.1046 28.2448 34.4997 27.2502 34.4997H26.0002V25.7497C26.0003 24.7932 25.6348 23.8728 24.9786 23.1769C24.3224 22.481 23.4251 22.0621 22.4702 22.006L22.2502 21.9997H19.7502C18.7557 21.9997 17.8018 22.3948 17.0986 23.0981C16.3953 23.8013 16.0002 24.7552 16.0002 25.7497V34.4997H14.7502C13.7557 34.4997 12.8018 34.1046 12.0986 33.4014C11.3953 32.6981 11.0002 31.7443 11.0002 30.7497V23.2497H9.75023C8.63773 23.2497 8.07898 21.9035 8.86648 21.116L20.1165 9.86598C20.3509 9.63164 20.6688 9.5 21.0002 9.5C21.3317 9.5 21.6496 9.63164 21.884 9.86598ZM22.2502 24.4997C22.5818 24.4997 22.8997 24.6314 23.1341 24.8658C23.3685 25.1003 23.5002 25.4182 23.5002 25.7497V34.4997H18.5002V25.7497C18.5003 25.4436 18.6127 25.1481 18.8161 24.9193C19.0196 24.6905 19.2999 24.5443 19.604 24.5085L19.7502 24.4997H22.2502Z" fill="white"/>
</svg>
