<svg width="42" height="59" viewBox="0 0 42 59" fill="none" xmlns="http://www.w3.org/2000/svg">
<path d="M42 20.9706C42 29.4642 30.7059 47.5663 24.6829 56.616C22.9089 59.2816 19.0911 59.2816 17.3171 56.616C11.2941 47.5663 0 29.4642 0 20.9706C0 9.38885 9.40202 0 21 0C32.598 0 42 9.38885 42 20.9706Z" fill="#B0B0C1"/>
<path d="M22.3859 9.36598L33.6359 20.616C34.4234 21.4035 33.8659 22.7497 32.7522 22.7497H31.5022V30.2497C31.5022 31.2443 31.1071 32.1981 30.4038 32.9014C29.7006 33.6046 28.7467 33.9997 27.7522 33.9997H26.5022V25.2497C26.5022 24.2932 26.1368 23.3728 25.4806 22.6769C24.8244 21.981 23.9271 21.5621 22.9722 21.506L22.7522 21.4997H20.2522C19.2576 21.4997 18.3038 21.8948 17.6005 22.5981C16.8973 23.3013 16.5022 24.2552 16.5022 25.2497V33.9997H15.2522C14.2576 33.9997 13.3038 33.6046 12.6005 32.9014C11.8973 32.1981 11.5022 31.2443 11.5022 30.2497V22.7497H10.2522C9.13968 22.7497 8.58093 21.4035 9.36843 20.616L20.6184 9.36598C20.8528 9.13164 21.1707 9 21.5022 9C21.8336 9 22.1515 9.13164 22.3859 9.36598ZM22.7522 23.9997C23.0837 23.9997 23.4016 24.1314 23.6361 24.3658C23.8705 24.6003 24.0022 24.9182 24.0022 25.2497V33.9997H19.0022V25.2497C19.0022 24.9436 19.1146 24.6481 19.3181 24.4193C19.5215 24.1905 19.8019 24.0443 20.1059 24.0085L20.2522 23.9997H22.7522Z" fill="white"/>
</svg>
