<svg width="42" height="62" viewBox="0 0 42 62" fill="none" xmlns="http://www.w3.org/2000/svg">
<path d="M42 20.9706C42 29.4642 30.7059 47.5663 24.6829 56.616C22.9089 59.2816 19.0911 59.2816 17.3171 56.616C11.2941 47.5663 0 29.4642 0 20.9706C0 9.38885 9.40202 0 21 0C32.598 0 42 9.38885 42 20.9706Z" fill="#4A3AFF"/>
<circle cx="21.3532" cy="23.2062" r="12.7941" fill="white"/>
<ellipse cx="10.2647" cy="24.4853" rx="4.26471" ry="2.98529" fill="white"/>
<ellipse cx="32.4415" cy="24.4853" rx="4.26471" ry="2.98529" fill="white"/>
<circle cx="19.6469" cy="12.1176" r="5.11765" fill="white"/>
<circle cx="24.7648" cy="11.2653" r="3.41176" fill="white"/>
<ellipse cx="26.0441" cy="24.4859" rx="1.27941" ry="2.13235" fill="#4A3AFF"/>
<ellipse cx="16.6617" cy="24.4859" rx="1.27941" ry="2.13235" fill="#4A3AFF"/>
<path d="M23.9706 28.4118C24.4417 28.4118 24.834 28.7995 24.7175 29.2559C24.5672 29.8444 24.261 30.3875 23.8242 30.8242C23.1844 31.4641 22.3166 31.8235 21.4118 31.8235C20.5069 31.8235 19.6391 31.4641 18.9993 30.8242C18.5625 30.3875 18.2564 29.8444 18.1061 29.2559C17.9895 28.7995 18.3819 28.4118 18.8529 28.4118L21.4118 28.4118H23.9706Z" fill="#4A3AFF"/>
</svg>
