<svg width="71" height="71" viewBox="0 0 71 71" fill="none" xmlns="http://www.w3.org/2000/svg">
<circle cx="35.5" cy="35.5" r="35.5" fill="#85EA47"/>
<ellipse cx="24" cy="32" rx="3" ry="5" fill="white"/>
<ellipse cx="46" cy="32" rx="3" ry="5" fill="white"/>
<path d="M45.375 45C46.8247 45 48.0098 46.2561 47.2025 47.4603C47.1534 47.5336 47.102 47.6064 47.0485 47.6788C46.4203 48.5281 45.4996 49.2997 44.3388 49.9497C43.1781 50.5998 41.8001 51.1154 40.2835 51.4672C38.767 51.8189 37.1415 52 35.5 52C33.8585 52 32.233 51.8189 30.7165 51.4672C29.1999 51.1154 27.8219 50.5998 26.6612 49.9497C25.5004 49.2997 24.5797 48.5281 23.9515 47.6788C23.898 47.6064 23.8466 47.5336 23.7975 47.4603C22.9902 46.2561 24.1753 45 25.625 45H26.5725C27.499 45 28.2509 45.8089 28.8019 46.5537C29.1662 47.0463 29.7003 47.4938 30.3735 47.8709C31.0467 48.2479 31.8459 48.5469 32.7255 48.751C33.6052 48.955 34.5479 49.06 35.5 49.06C36.4521 49.06 37.3948 48.955 38.2745 48.751C39.1541 48.5469 39.9533 48.2479 40.6265 47.8709C41.2997 47.4938 41.8338 47.0463 42.1981 46.5537C42.7491 45.8089 43.501 45 44.4275 45H45.375Z" fill="white"/>
</svg>
