<svg width="150" height="55" viewBox="0 0 150 55" fill="none" xmlns="http://www.w3.org/2000/svg">
<ellipse cx="120.93" cy="28.754" rx="26.3918" ry="26.2462" fill="#FF6C6C"/>
<path d="M150 24.8359C150 37.038 137.118 44.1876 121.324 44.1876C105.53 44.1876 91.8594 37.038 91.8594 24.8359C91.8594 12.6339 105.53 0 121.324 0C137.118 0 150 12.6339 150 24.8359Z" fill="#FF6C6C"/>
<ellipse cx="15.5988" cy="39.4873" rx="15.5988" ry="15.5127" fill="#4A3AFF"/>
<ellipse cx="48.5299" cy="39.4873" rx="15.5988" ry="15.5127" fill="#4A3AFF"/>
<ellipse cx="31.1187" cy="21.3894" rx="18.9864" ry="18.8816" fill="#4A3AFF"/>
<ellipse cx="79.6482" cy="28.754" rx="26.3918" ry="26.2462" fill="#93C5FF"/>
<path d="M28.9127 47.5572C30.961 44.5018 33.6396 44.9719 35.2939 47.5572C36.6595 45.912 39.4694 42.026 39.4694 41.5246C39.4694 40.8979 32.6941 35.2566 31.9851 34.8649C31.2761 34.4731 27.2582 44.3448 26.8643 44.8149C26.5491 45.191 28.1511 46.7998 28.9127 47.5572Z" fill="#4A3AFF"/>
<path d="M108.325 24.8359C108.325 35.5791 110.626 39.2884 94.5379 39.989C82.0904 40.0417 65.7802 39.989 63.8918 39.989C48.0977 39.989 50.1839 37.038 50.1839 24.8359C50.1839 12.6339 63.8541 0 79.6482 0C95.4423 0 108.325 12.6339 108.325 24.8359Z" fill="#93C5FF"/>
<ellipse cx="72.9518" cy="34.864" rx="1.41807" ry="1.64528" fill="#474464"/>
<ellipse cx="24.8951" cy="34.864" rx="1.41807" ry="1.64528" fill="white"/>
<ellipse cx="114.706" cy="34.864" rx="1.41807" ry="1.64528" fill="white"/>
<ellipse cx="85.399" cy="34.864" rx="1.41807" ry="1.64528" fill="#474464"/>
<ellipse cx="37.3424" cy="34.864" rx="1.41807" ry="1.64528" fill="white"/>
<ellipse cx="127.154" cy="34.864" rx="1.41807" ry="1.64528" fill="white"/>
<path d="M81.7897 37.6055C82.739 37.6055 83.5389 38.4013 83.1907 39.2845C82.9809 39.8168 82.6733 40.3004 82.2856 40.7078C81.8979 41.1153 81.4376 41.4384 80.931 41.6589C80.4244 41.8794 79.8815 41.9929 79.3331 41.9929C78.7848 41.9929 78.2419 41.8794 77.7353 41.6589C77.2287 41.4384 76.7684 41.1153 76.3807 40.7078C75.9929 40.3004 75.6854 39.8168 75.4756 39.2845C75.1274 38.4013 75.9273 37.6055 76.8766 37.6055L79.3331 37.6055H81.7897Z" fill="#474464"/>
<path d="M28.2036 38.0762H34.4274" stroke="white" stroke-width="1.10294" stroke-linecap="round"/>
<path d="M125.476 41.367C126.054 41.367 126.537 40.8856 126.343 40.3414C126.094 39.6454 125.595 39.0034 124.885 38.4862C123.836 37.7222 122.413 37.293 120.929 37.293C119.446 37.293 118.023 37.7222 116.974 38.4862C116.264 39.0034 115.765 39.6454 115.516 40.3414C115.322 40.8856 115.804 41.367 116.382 41.367C116.96 41.367 117.416 40.8702 117.707 40.3709C117.881 40.0724 118.133 39.7979 118.454 39.5642C119.111 39.086 120.001 38.8174 120.929 38.8174C121.858 38.8174 122.748 39.086 123.405 39.5642C123.726 39.7979 123.978 40.0724 124.152 40.3709C124.443 40.8702 124.898 41.367 125.476 41.367Z" fill="white"/>
</svg>
