<svg width="42" height="62" viewBox="0 0 42 62" fill="none" xmlns="http://www.w3.org/2000/svg">
<path d="M42 20.9706C42 29.4642 30.7059 47.5663 24.6829 56.616C22.9089 59.2816 19.0911 59.2816 17.3171 56.616C11.2941 47.5663 0 29.4642 0 20.9706C0 9.38885 9.40202 0 21 0C32.598 0 42 9.38885 42 20.9706Z" fill="#B0B0C1"/>
<path d="M20.9414 7C24.7923 7 27.9141 10.1218 27.9141 13.9727C27.9141 14.6069 27.8267 15.2207 27.668 15.8047C28.1077 15.7178 28.5621 15.6719 29.0273 15.6719C32.8782 15.6719 36 18.7936 36 22.6445C36 26.4954 32.8782 29.6172 29.0273 29.6172C28.6412 29.6172 28.2627 29.5838 27.8936 29.5234C27.9054 29.6899 27.9141 29.8578 27.9141 30.0273C27.9141 33.8782 24.7923 37 20.9414 37C17.0905 37 13.9688 33.8782 13.9688 30.0273C13.9688 29.8645 13.9753 29.703 13.9863 29.543C13.6554 29.5912 13.317 29.6172 12.9727 29.6172C9.12176 29.6172 6 26.4954 6 22.6445C6 18.7936 9.12176 15.6719 12.9727 15.6719C13.394 15.6719 13.8063 15.7106 14.207 15.7822C14.0523 15.2051 13.9688 14.5986 13.9688 13.9727C13.9688 10.1218 17.0905 7 20.9414 7Z" fill="white"/>
</svg>
