<svg width="26" height="22" viewBox="0 0 26 22" fill="none" xmlns="http://www.w3.org/2000/svg">
<path d="M10.2002 1.95703C15.0558 1.95727 18.9424 5.80896 18.9424 10.5C18.9424 15.191 15.0558 19.0427 10.2002 19.043C5.34436 19.043 1.45703 15.1912 1.45703 10.5C1.45703 5.80882 5.34436 1.95703 10.2002 1.95703Z" stroke="#B0B0C1" stroke-width="2.91384"/>
<path d="M22.887 20.9662C23.6315 21.5809 24.7335 21.4757 25.3482 20.7311C25.963 19.9865 25.8577 18.8845 25.1131 18.2698L22.887 20.9662ZM17.7002 14.9121V16.6604C17.4973 16.6604 17.3471 16.6223 17.2874 16.6057C17.2163 16.586 17.1683 16.5664 17.1513 16.5593C17.1189 16.5456 17.1206 16.5437 17.169 16.5711C17.2621 16.6239 17.4147 16.7203 17.6312 16.8687C18.0572 17.1609 18.6226 17.5798 19.2532 18.0638C20.5087 19.0273 21.9465 20.1897 22.887 20.9662L24 19.618L25.1131 18.2698C24.1536 17.4776 22.6815 16.2871 21.382 15.2899C20.7352 14.7935 20.1118 14.33 19.6086 13.9849C19.3603 13.8147 19.1131 13.6538 18.8925 13.5288C18.7841 13.4674 18.6506 13.3966 18.507 13.3362C18.422 13.3004 18.1032 13.1638 17.7002 13.1638V14.9121Z" fill="#B0B0C1"/>
</svg>
