<svg width="72" height="71" viewBox="0 0 72 71" fill="none" xmlns="http://www.w3.org/2000/svg">
<circle cx="36" cy="35.5" r="35.5" fill="#FF6C6C"/>
<ellipse cx="25" cy="32" rx="3" ry="5" fill="white"/>
<ellipse cx="47" cy="32" rx="3" ry="5" fill="white"/>
<path d="M45.375 51C46.8247 51 48.0098 49.7439 47.2025 48.5397C47.1534 48.4664 47.102 48.3936 47.0485 48.3212C46.4203 47.4719 45.4996 46.7003 44.3388 46.0503C43.1781 45.4002 41.8001 44.8846 40.2835 44.5328C38.767 44.1811 37.1415 44 35.5 44C33.8585 44 32.233 44.1811 30.7165 44.5328C29.1999 44.8846 27.8219 45.4002 26.6612 46.0503C25.5004 46.7003 24.5797 47.4719 23.9515 48.3212C23.898 48.3936 23.8466 48.4664 23.7975 48.5397C22.9902 49.7439 24.1753 51 25.625 51H26.5725C27.499 51 28.2509 50.1911 28.8019 49.4463C29.1662 48.9537 29.7003 48.5062 30.3735 48.1291C31.0467 47.7521 31.8459 47.4531 32.7255 47.249C33.6052 47.045 34.5479 46.94 35.5 46.94C36.4521 46.94 37.3948 47.045 38.2745 47.249C39.1541 47.4531 39.9533 47.7521 40.6265 48.1291C41.2997 48.5062 41.8338 48.9537 42.1981 49.4463C42.7491 50.1911 43.501 51 44.4275 51H45.375Z" fill="white"/>
</svg>
